<svg xmlns="http://www.w3.org/2000/svg" width="42" height="42" viewBox="0 0 42 42">
  <defs>
    <style>
      .cls-1 {
        fill: none;
      }

      .cls-2 {
        fill: #7590ae;
      }
    </style>
  </defs>
  <g id="Layer_2" data-name="Layer 2" transform="translate(0.053 0.102)">
    <g id="invisible_box" data-name="invisible box" transform="translate(0 0)">
      <rect id="Retângulo_3374" data-name="Retângulo 3374" class="cls-1" width="42" height="42" transform="translate(-0.053 -0.102)"/>
    </g>
    <g id="icons_Q2" data-name="icons Q2" transform="translate(2.196 2.145)">
      <path id="Caminho_5042" data-name="Caminho 5042" class="cls-2" d="M36.1,20.753A15.344,15.344,0,1,1,20.753,5.41,15.344,15.344,0,0,1,36.1,20.753m3.41,0a18.668,18.668,0,1,0-5.468,13.286A18.753,18.753,0,0,0,39.507,20.753Z" transform="translate(-2 -2)"/>
      <path id="Caminho_5043" data-name="Caminho 5043" class="cls-2" d="M21.089,22.524l5.626,5.626a1.62,1.62,0,0,1-.17,2.557,1.79,1.79,0,0,1-2.3-.17l-6.734-6.819a1.62,1.62,0,0,1,0-2.387l6.734-6.819a1.79,1.79,0,0,1,2.3-.17,1.62,1.62,0,0,1,.17,2.557Z" transform="translate(-4.211 -3.771)"/>
    </g>
  </g>
</svg>
